<?xml version="1.0" encoding="UTF-8"?>
<svg version="1.1" xmlns="http://www.w3.org/2000/svg" width="112" height="27">
<path d="M0 0 C3.0625 1.5 3.0625 1.5 5 3 C3.25 6.875 3.25 6.875 1 8 C0.4225 7.67 -0.155 7.34 -0.75 7 C-3.78842416 5.64958926 -5.82172097 6.27766386 -9 7 C-10.19988045 12.28199593 -10.19988045 12.28199593 -8 17 C-4.45812169 17.33338596 -4.45812169 17.33338596 -1 17 C-0.67 16.67 -0.34 16.34 0 16 C-2.97 15.505 -2.97 15.505 -6 15 C-5.67 13.35 -5.34 11.7 -5 10 C-1.04 10 2.92 10 7 10 C7 17.41935484 7 17.41935484 4 21 C0.26374714 23.1555305 -2.24182237 24 -6.5625 24 C-10.86622119 22.74800838 -13.00862009 21.34749656 -16 18 C-17.60729729 13.71686699 -17.15784783 10.53492876 -15.875 6.1875 C-12.08209558 -0.26043751 -7.03409943 -0.99215146 0 0 Z " fill="#FEFEFE" transform="translate(41,2)"/>
<path d="M0 0 C1.2065625 0.0309375 1.2065625 0.0309375 2.4375 0.0625 C2.49808594 1.12210937 2.55867187 2.18171875 2.62109375 3.2734375 C2.70550127 4.66147221 2.79014917 6.04949232 2.875 7.4375 C2.91431641 8.13617188 2.95363281 8.83484375 2.99414062 9.5546875 C3.18030134 13.43610492 3.18030134 13.43610492 4.4375 17.0625 C6.0875 17.0625 7.7375 17.0625 9.4375 17.0625 C9.7675 11.4525 10.0975 5.8425 10.4375 0.0625 C12.4175 0.0625 14.3975 0.0625 16.4375 0.0625 C16.51876109 2.79227064 16.57811663 5.5196017 16.625 8.25 C16.65013672 9.01892578 16.67527344 9.78785156 16.70117188 10.58007812 C16.76132957 15.25232568 16.47588709 18.26633771 13.4375 22.0625 C10.33755108 23.95691323 8.52974952 24.06573683 4.875 23.9375 C1.11299589 22.97989895 -0.23322977 22.10846876 -2.5625 19.0625 C-3.76075457 15.46773628 -3.70858744 12.17700601 -3.6875 8.4375 C-3.69136719 7.74398438 -3.69523438 7.05046875 -3.69921875 6.3359375 C-3.68701951 0.08992731 -3.68701951 0.08992731 0 0 Z " fill="#FEFEFE" transform="translate(5.5625,1.9375)"/>
<path d="M0 0 C1.98 0 3.96 0 6 0 C9.60496855 7.50542633 12.51754664 15.05337555 15 23 C12.69 23 10.38 23 8 23 C7.67 22.01 7.34 21.02 7 20 C4.36 19.67 1.72 19.34 -1 19 C-1.33 20.32 -1.66 21.64 -2 23 C-3.98 23 -5.96 23 -8 23 C-5.81659819 15.13620323 -3.00714974 7.58324716 0 0 Z M3 9 C2.34 10.65 1.68 12.3 1 14 C2.32 14 3.64 14 5 14 C4.67 12.35 4.34 10.7 4 9 C3.67 9 3.34 9 3 9 Z " fill="#7176E4" transform="translate(89,2)"/>
<path d="M0 0 C3.0625 1.5 3.0625 1.5 5 3 C4.0625 5.0625 4.0625 5.0625 2 7 C-0.39456524 6.96930045 -2.59173667 6.61933509 -4.94140625 6.1640625 C-5.62074219 6.10992188 -6.30007812 6.05578125 -7 6 C-9.21370051 7.78657757 -9.21370051 7.78657757 -9.1953125 10.1640625 C-9.17210937 10.97617188 -9.14890625 11.78828125 -9.125 12.625 C-9.10695313 13.44226562 -9.08890625 14.25953125 -9.0703125 15.1015625 C-9.04710937 15.72804688 -9.02390625 16.35453125 -9 17 C-7.741875 17 -6.48375 17 -5.1875 17 C-2.79166667 17 -0.39583333 17 2 17 C2.66 18.32 3.32 19.64 4 21 C-0.26823793 23.66764871 -3.2327851 24.47704006 -8.1015625 23.65625 C-11.2129904 22.58069468 -12.94929633 20.48570142 -15 18 C-15.33 17.67 -15.66 17.34 -16 17 C-16.53798008 12.91903684 -16.93436984 8.75020022 -14.953125 5.0390625 C-10.50570394 -0.32400407 -6.62495583 -0.68534026 0 0 Z " fill="#FEFEFE" transform="translate(66,2)"/>
<path d="M0 0 C1.98 0 3.96 0 6 0 C6 7.59 6 15.18 6 23 C4.02 23 2.04 23 0 23 C0 15.41 0 7.82 0 0 Z " fill="#757BE6" transform="translate(105,2)"/>
<path d="M0 0 C2.0625 0.4375 2.0625 0.4375 4 1 C4.33 2.32 4.66 3.64 5 5 C3.125 6.0625 3.125 6.0625 1 7 C0.34 6.67 -0.32 6.34 -1 6 C-1.042721 4.33388095 -1.04063832 2.66617115 -1 1 C-0.67 0.67 -0.34 0.34 0 0 Z " fill="#FEFFFF" transform="translate(74,19)"/>
</svg>
